<svg xmlns="http://www.w3.org/2000/svg" width="480" height="300" viewBox="0 0 480 300">
  <defs>
    <linearGradient id="g" x1="0" x2="1">
      <stop offset="0" stop-color="#ffeef0"/>
      <stop offset="1" stop-color="#fff5f8"/>
    </linearGradient>
  </defs>
  <rect width="480" height="300" fill="#fff"/>
  <rect x="28" y="40" width="424" height="220" rx="12" fill="url(#g)" stroke="#ffd1dc" stroke-width="2"/>
  <!-- bed -->
  <rect x="60" y="140" width="200" height="80" rx="8" fill="#f7c6d0"/>
  <rect x="70" y="110" width="180" height="60" rx="6" fill="#ffdbe6"/>
  <!-- bedside lamp -->
  <rect x="280" y="140" width="34" height="78" rx="6" fill="#fff6e6" stroke="#ffb6c1"/>
  <circle cx="297" cy="120" r="18" fill="#fff7ea" stroke="#ffd1a9"/>
  <!-- heart -->
  <path d="M380 90c-12-12-30-12-42 0-12-12-30-12-42 0-14 14-14 36 0 50l42 42 42-42c14-14 14-36 0-50z" fill="#ff6b81" opacity="0.95"/>
  <text x="60" y="80" font-family="Poppins, Arial" font-size="20" fill="#b63b4a">Romantic Room</text>
</svg>